<svg width="180" height="180" viewBox="0 0 180 180" xmlns="http://www.w3.org/2000/svg">
  <rect width="180" height="180" rx="36" fill="#f5efe6"/>
  <circle cx="90" cy="55" r="28" fill="#d97706" opacity="0.3"/>
  <circle cx="90" cy="55" r="18" fill="#d97706" opacity="0.8"/>
  <path d="M90 35 L90 25" stroke="#d97706" stroke-width="3" stroke-linecap="round"/>
  <path d="M90 75 L90 85" stroke="#d97706" stroke-width="3" stroke-linecap="round"/>
  <path d="M70 55 L60 55" stroke="#d97706" stroke-width="3" stroke-linecap="round"/>
  <path d="M110 55 L120 55" stroke="#d97706" stroke-width="3" stroke-linecap="round"/>
  <path d="M75 40 L68 33" stroke="#d97706" stroke-width="3" stroke-linecap="round"/>
  <path d="M105 40 L112 33" stroke="#d97706" stroke-width="3" stroke-linecap="round"/>
  <path d="M75 70 L68 77" stroke="#d97706" stroke-width="3" stroke-linecap="round"/>
  <path d="M105 70 L112 77" stroke="#d97706" stroke-width="3" stroke-linecap="round"/>
  <ellipse cx="90" cy="75" rx="10" ry="16" fill="white" opacity="0.8"/>
  <circle cx="90" cy="65" r="7" fill="white" opacity="0.8"/>
  <path d="M90 90 L90 130" stroke="white" stroke-width="4" stroke-linecap="round"/>
  <path d="M90 100 L75 120" stroke="white" stroke-width="4" stroke-linecap="round"/>
  <path d="M90 100 L105 120" stroke="white" stroke-width="4" stroke-linecap="round"/>
  <path d="M90 125 L78 145" stroke="white" stroke-width="4" stroke-linecap="round"/>
  <path d="M90 125 L102 145" stroke="white" stroke-width="4" stroke-linecap="round"/>
</svg>